<?xml version="1.0" encoding="utf-8"?>
<!-- Generator: Adobe Illustrator 25.0.1, SVG Export Plug-In . SVG Version: 6.00 Build 0)  -->
<svg version="1.1" id="Layer_1" xmlns="http://www.w3.org/2000/svg" xmlns:xlink="http://www.w3.org/1999/xlink" x="0px" y="0px"
	 viewBox="0 0 3000 1400" style="enable-background:new 0 0 3000 1400;" xml:space="preserve">
<style type="text/css">
	.st0{fill:url(#SVGID_1_);}
	.st1{fill:url(#SVGID_2_);}
	.st2{fill:url(#SVGID_3_);}
	.st3{fill:url(#SVGID_4_);}
	.st4{fill:url(#SVGID_5_);}
	.st5{fill:url(#SVGID_6_);}
	.st6{fill:url(#SVGID_7_);}
	.st7{fill:url(#SVGID_8_);}
	.st8{fill:url(#SVGID_9_);}
	.st9{fill:url(#SVGID_10_);}
	.st10{fill:url(#SVGID_11_);}
	.st11{fill:url(#SVGID_12_);}
	.st12{fill:url(#SVGID_13_);}
	.st13{fill:url(#SVGID_14_);}
	.st14{fill:url(#SVGID_15_);}
	.st15{fill:url(#SVGID_16_);}
	.st16{fill:url(#SVGID_17_);}
	.st17{fill:url(#SVGID_18_);}
	.st18{fill:url(#SVGID_19_);}
	.st19{fill:url(#SVGID_20_);}
	.st20{fill:url(#SVGID_21_);}
	.st21{fill:url(#SVGID_22_);}
	.st22{fill:url(#SVGID_23_);}
	.st23{fill:url(#SVGID_24_);}
	.st24{fill:url(#SVGID_25_);}
	.st25{fill:url(#SVGID_26_);}
	.st26{fill:url(#SVGID_27_);}
	.st27{fill:url(#SVGID_28_);}
	.st28{fill:url(#SVGID_29_);}
	.st29{fill:url(#SVGID_30_);}
	.st30{fill:url(#SVGID_31_);}
	.st31{fill:url(#SVGID_32_);}
	.st32{fill:url(#SVGID_33_);}
	.st33{fill:url(#SVGID_34_);}
	.st34{fill:url(#SVGID_35_);}
	.st35{fill:url(#SVGID_36_);}
	.st36{fill:url(#SVGID_37_);}
	.st37{fill:url(#SVGID_38_);}
	.st38{fill:url(#SVGID_39_);}
	.st39{fill:url(#SVGID_40_);}
</style>
<linearGradient id="SVGID_1_" gradientUnits="userSpaceOnUse" x1="886.4735" y1="388.6265" x2="2745.7847" y2="-1470.6851" gradientTransform="matrix(1 0 0 1 0 1350)">
	<stop  offset="0" style="stop-color:#A30AA1"/>
	<stop  offset="0.5838" style="stop-color:#750AC5"/>
	<stop  offset="1" style="stop-color:#1327BD"/>
</linearGradient>
<path class="st0" d="M1841.1,843.2l19.4,19.5l344.4-260.6h-363.8L1841.1,843.2z"/>
<linearGradient id="SVGID_2_" gradientUnits="userSpaceOnUse" x1="1110.688" y1="634.712" x2="2982.291" y2="-1236.8911" gradientTransform="matrix(1 0 0 1 0 1350)">
	<stop  offset="0" style="stop-color:#A30AA1"/>
	<stop  offset="0.5838" style="stop-color:#750AC5"/>
	<stop  offset="1" style="stop-color:#1327BD"/>
</linearGradient>
<path class="st1" d="M2703.4,425.6l27.5-39.4l-27.5-27.8V425.6z"/>
<linearGradient id="SVGID_3_" gradientUnits="userSpaceOnUse" x1="1584.7413" y1="1106.0587" x2="3454.5088" y2="-763.7087" gradientTransform="matrix(1 0 0 1 0 1350)">
	<stop  offset="0" style="stop-color:#A30AA1"/>
	<stop  offset="0.5838" style="stop-color:#750AC5"/>
	<stop  offset="1" style="stop-color:#1327BD"/>
</linearGradient>
<path class="st2" d="M2648.1,1400.2H3000l-313.4-405.4l-102.5,324.7L2648.1,1400.2z"/>
<linearGradient id="SVGID_4_" gradientUnits="userSpaceOnUse" x1="967.4886" y1="464.8614" x2="2824.6052" y2="-1392.2551" gradientTransform="matrix(1 0 0 1 0 1350)">
	<stop  offset="0" style="stop-color:#A30AA1"/>
	<stop  offset="0.5838" style="stop-color:#750AC5"/>
	<stop  offset="1" style="stop-color:#1327BD"/>
</linearGradient>
<path class="st3" d="M2628,282.1l-77.9-78.9l-179.7,81h254.9L2628,282.1z"/>
<linearGradient id="SVGID_5_" gradientUnits="userSpaceOnUse" x1="431.0878" y1="-71.5879" x2="2288.0283" y2="-1928.5286" gradientTransform="matrix(1 0 0 1 0 1350)">
	<stop  offset="0" style="stop-color:#A30AA1"/>
	<stop  offset="0.5838" style="stop-color:#750AC5"/>
	<stop  offset="1" style="stop-color:#1327BD"/>
</linearGradient>
<path class="st4" d="M648.1,1060.2l1.2,1.2l-0.5-1.5L648.1,1060.2z"/>
<linearGradient id="SVGID_6_" gradientUnits="userSpaceOnUse" x1="255.5401" y1="-241.4402" x2="2136.7817" y2="-2122.6816" gradientTransform="matrix(1 0 0 1 0 1350)">
	<stop  offset="0" style="stop-color:#A30AA1"/>
	<stop  offset="0.5838" style="stop-color:#750AC5"/>
	<stop  offset="1" style="stop-color:#1327BD"/>
</linearGradient>
<path class="st5" d="M522.3,656.5l-216.6,57.3l342.4,346.4l0.7-0.3L522.3,656.5z"/>
<linearGradient id="SVGID_7_" gradientUnits="userSpaceOnUse" x1="394.817" y1="-102.917" x2="2261.3757" y2="-1969.4757" gradientTransform="matrix(1 0 0 1 0 1350)">
	<stop  offset="0" style="stop-color:#A30AA1"/>
	<stop  offset="0.5838" style="stop-color:#750AC5"/>
	<stop  offset="1" style="stop-color:#1327BD"/>
</linearGradient>
<path class="st6" d="M1224.5,219.6l-85.8,273.6l282.5-74.7L1224.5,219.6z"/>
<linearGradient id="SVGID_8_" gradientUnits="userSpaceOnUse" x1="994.9032" y1="500.0468" x2="2857.6528" y2="-1362.7028" gradientTransform="matrix(1 0 0 1 0 1350)">
	<stop  offset="0" style="stop-color:#A30AA1"/>
	<stop  offset="0.5838" style="stop-color:#750AC5"/>
	<stop  offset="1" style="stop-color:#1327BD"/>
</linearGradient>
<path class="st7" d="M1390.3,1400.2H1681V998.5l-290.7,219.9V1400.2z"/>
<linearGradient id="SVGID_9_" gradientUnits="userSpaceOnUse" x1="759.0109" y1="256.2388" x2="2616.8887" y2="-1601.6385" gradientTransform="matrix(1 0 0 1 0 1350)">
	<stop  offset="0" style="stop-color:#A30AA1"/>
	<stop  offset="0.5838" style="stop-color:#750AC5"/>
	<stop  offset="1" style="stop-color:#1327BD"/>
</linearGradient>
<path class="st8" d="M2412.7,64.4l-412.9,45l122,123.5l362.6-96L2412.7,64.4z"/>
<linearGradient id="SVGID_10_" gradientUnits="userSpaceOnUse" x1="720.1741" y1="232.626" x2="2591.7771" y2="-1638.9771" gradientTransform="matrix(1 0 0 1 0 1350)">
	<stop  offset="0" style="stop-color:#A30AA1"/>
	<stop  offset="0.5838" style="stop-color:#750AC5"/>
	<stop  offset="1" style="stop-color:#1327BD"/>
</linearGradient>
<path class="st9" d="M1621.9,621.5l59.1,59.7v-86.3L1621.9,621.5z"/>
<linearGradient id="SVGID_11_" gradientUnits="userSpaceOnUse" x1="-248.6008" y1="-756.8492" x2="1614.5472" y2="-2619.9971" gradientTransform="matrix(1 0 0 1 0 1350)">
	<stop  offset="0" style="stop-color:#A30AA1"/>
	<stop  offset="0.5838" style="stop-color:#750AC5"/>
	<stop  offset="1" style="stop-color:#1327BD"/>
</linearGradient>
<path class="st10" d="M316.5,0.2H0l104.9,316.1l300.5-32.8L316.5,0.2z"/>
<linearGradient id="SVGID_12_" gradientUnits="userSpaceOnUse" x1="1378.5551" y1="889.6946" x2="3241.1194" y2="-972.8694" gradientTransform="matrix(1 0 0 1 0 1350)">
	<stop  offset="0" style="stop-color:#A30AA1"/>
	<stop  offset="0.5838" style="stop-color:#750AC5"/>
	<stop  offset="1" style="stop-color:#1327BD"/>
</linearGradient>
<path class="st11" d="M2720.9,886.2h46.9l-35.6-35.9L2720.9,886.2z"/>
<linearGradient id="SVGID_13_" gradientUnits="userSpaceOnUse" x1="1029.5714" y1="532.3287" x2="2889.303" y2="-1327.403" gradientTransform="matrix(1 0 0 1 0 1350)">
	<stop  offset="0" style="stop-color:#A30AA1"/>
	<stop  offset="0.5838" style="stop-color:#750AC5"/>
	<stop  offset="1" style="stop-color:#1327BD"/>
</linearGradient>
<path class="st12" d="M2630.1,284.2l-2.1-2.1l-2.7,2.1H2630.1z"/>
<linearGradient id="SVGID_14_" gradientUnits="userSpaceOnUse" x1="1076.62" y1="586.9302" x2="2940.0686" y2="-1276.5184" gradientTransform="matrix(1 0 0 1 0 1350)">
	<stop  offset="0" style="stop-color:#A30AA1"/>
	<stop  offset="0.5838" style="stop-color:#750AC5"/>
	<stop  offset="1" style="stop-color:#1327BD"/>
</linearGradient>
<path class="st13" d="M2630.1,284.2h73.3v74.1l27.5,27.8L2945,79.8c-3.9-4.7-7.9-9.3-12.2-13.7c-2.8-2.8-5.8-5.4-8.7-8l-296,223.9
	L2630.1,284.2z"/>
<linearGradient id="SVGID_15_" gradientUnits="userSpaceOnUse" x1="671.3274" y1="163.1226" x2="2526.5227" y2="-1692.0728" gradientTransform="matrix(1 0 0 1 0 1350)">
	<stop  offset="0" style="stop-color:#A30AA1"/>
	<stop  offset="0.5838" style="stop-color:#750AC5"/>
	<stop  offset="1" style="stop-color:#1327BD"/>
</linearGradient>
<path class="st14" d="M2412.7,64.4l-63.5-64.2h-457.6l108.2,109.2L2412.7,64.4z"/>
<linearGradient id="SVGID_16_" gradientUnits="userSpaceOnUse" x1="886.3926" y1="374.6079" x2="2739.0881" y2="-1478.088" gradientTransform="matrix(1 0 0 1 0 1350)">
	<stop  offset="0" style="stop-color:#A30AA1"/>
	<stop  offset="0.5838" style="stop-color:#750AC5"/>
	<stop  offset="1" style="stop-color:#1327BD"/>
</linearGradient>
<path class="st15" d="M2856.6,16c-25.4-10.4-52.6-15.8-82-15.8h-425.4l63.5,64.2L2856.6,16z"/>
<linearGradient id="SVGID_17_" gradientUnits="userSpaceOnUse" x1="430.3529" y1="-78.953" x2="2285.4946" y2="-1934.0947" gradientTransform="matrix(1 0 0 1 0 1350)">
	<stop  offset="0" style="stop-color:#A30AA1"/>
	<stop  offset="0.5838" style="stop-color:#750AC5"/>
	<stop  offset="1" style="stop-color:#1327BD"/>
</linearGradient>
<path class="st16" d="M1891.6,0.2h-598.2l-60.6,193l767-83.8L1891.6,0.2z"/>
<linearGradient id="SVGID_18_" gradientUnits="userSpaceOnUse" x1="927.7357" y1="419.2644" x2="2782.0032" y2="-1435.0032" gradientTransform="matrix(1 0 0 1 0 1350)">
	<stop  offset="0" style="stop-color:#A30AA1"/>
	<stop  offset="0.5838" style="stop-color:#750AC5"/>
	<stop  offset="1" style="stop-color:#1327BD"/>
</linearGradient>
<path class="st17" d="M2484.4,136.9l401.8-106.3c-7.6-4.5-15.4-8.6-23.7-12.3c-1.9-0.9-4-1.4-6-2.2l-443.9,48.5L2484.4,136.9
	L2484.4,136.9z"/>
<linearGradient id="SVGID_19_" gradientUnits="userSpaceOnUse" x1="1157.5529" y1="676.047" x2="3025.022" y2="-1191.422" gradientTransform="matrix(1 0 0 1 0 1350)">
	<stop  offset="0" style="stop-color:#A30AA1"/>
	<stop  offset="0.5838" style="stop-color:#750AC5"/>
	<stop  offset="1" style="stop-color:#1327BD"/>
</linearGradient>
<path class="st18" d="M2730.9,386.2l112,113.3l123-389.5c-6.2-10.7-13.1-20.8-21-30.1L2730.9,386.2L2730.9,386.2z"/>
<linearGradient id="SVGID_20_" gradientUnits="userSpaceOnUse" x1="522.2395" y1="18.1106" x2="2380.1343" y2="-1839.7842" gradientTransform="matrix(1 0 0 1 0 1350)">
	<stop  offset="0" style="stop-color:#A30AA1"/>
	<stop  offset="0.5838" style="stop-color:#750AC5"/>
	<stop  offset="1" style="stop-color:#1327BD"/>
</linearGradient>
<path class="st19" d="M1421.2,418.5l259.8-68.8v-65.5h247.1l193.7-51.3l-122-123.5l-767,83.8l-8.3,26.4L1421.2,418.5z"/>
<linearGradient id="SVGID_21_" gradientUnits="userSpaceOnUse" x1="1007.5957" y1="510.1541" x2="2867.2146" y2="-1349.4647" gradientTransform="matrix(1 0 0 1 0 1350)">
	<stop  offset="0" style="stop-color:#A30AA1"/>
	<stop  offset="0.5838" style="stop-color:#750AC5"/>
	<stop  offset="1" style="stop-color:#1327BD"/>
</linearGradient>
<path class="st20" d="M2628,282.1l296-223.9c-5.9-5.4-12.1-10.4-18.5-15.1L2550,203.3L2628,282.1z"/>
<linearGradient id="SVGID_22_" gradientUnits="userSpaceOnUse" x1="643.3132" y1="146.0459" x2="2507.1973" y2="-1717.8379" gradientTransform="matrix(1 0 0 1 0 1350)">
	<stop  offset="0" style="stop-color:#A30AA1"/>
	<stop  offset="0.5838" style="stop-color:#750AC5"/>
	<stop  offset="1" style="stop-color:#1327BD"/>
</linearGradient>
<path class="st21" d="M1216.2,1180.2l146.7-442l-350.6,158l-69,220.1H703.5l278.6,281.8c55.7-6,101.3-25.1,136.3-57.8
	C1161.1,1300.2,1193.8,1246.9,1216.2,1180.2L1216.2,1180.2z"/>
<linearGradient id="SVGID_23_" gradientUnits="userSpaceOnUse" x1="1338.431" y1="862.7696" x2="3211.491" y2="-1010.2913" gradientTransform="matrix(1 0 0 1 0 1350)">
	<stop  offset="0" style="stop-color:#A30AA1"/>
	<stop  offset="0.5838" style="stop-color:#750AC5"/>
	<stop  offset="1" style="stop-color:#1327BD"/>
</linearGradient>
<path class="st22" d="M2720.9,886.2l11.3-35.9l-190.8-192.9l-225.9,323.2l268.6,338.9l102.5-324.7l-84-108.6H2720.9z"/>
<linearGradient id="SVGID_24_" gradientUnits="userSpaceOnUse" x1="562.3289" y1="61.1211" x2="2425.8789" y2="-1802.4292" gradientTransform="matrix(1 0 0 1 0 1350)">
	<stop  offset="0" style="stop-color:#A30AA1"/>
	<stop  offset="0.5838" style="stop-color:#750AC5"/>
	<stop  offset="1" style="stop-color:#1327BD"/>
</linearGradient>
<path class="st23" d="M666.5,1116.2l-17.2-54.8l-1.1-1.1l-257.8,116.1l1.3,3.8c22.4,65.3,55.4,118.4,98.9,158.9
	c43.5,40.8,102.2,61.1,176,61.1h276.8c13.5,0,26.3-0.9,38.7-2.2l-278.6-281.8H666.5z"/>
<linearGradient id="SVGID_25_" gradientUnits="userSpaceOnUse" x1="-22.9761" y1="-527.0239" x2="1844.6497" y2="-2394.6497" gradientTransform="matrix(1 0 0 1 0 1350)">
	<stop  offset="0" style="stop-color:#A30AA1"/>
	<stop  offset="0.5838" style="stop-color:#750AC5"/>
	<stop  offset="1" style="stop-color:#1327BD"/>
</linearGradient>
<path class="st24" d="M522.3,656.5l-116.9-373l-300.5,32.8l97.3,292.8l103.5,104.7L522.3,656.5z"/>
<linearGradient id="SVGID_26_" gradientUnits="userSpaceOnUse" x1="33.6037" y1="-468.2037" x2="1915.7854" y2="-2350.3853" gradientTransform="matrix(1 0 0 1 0 1350)">
	<stop  offset="0" style="stop-color:#A30AA1"/>
	<stop  offset="0.5838" style="stop-color:#750AC5"/>
	<stop  offset="1" style="stop-color:#1327BD"/>
</linearGradient>
<path class="st25" d="M202.2,609.1l40.3,121.5l63.2-16.8L202.2,609.1z"/>
<linearGradient id="SVGID_27_" gradientUnits="userSpaceOnUse" x1="246.3495" y1="-255.6496" x2="2122.7146" y2="-2132.0146" gradientTransform="matrix(1 0 0 1 0 1350)">
	<stop  offset="0" style="stop-color:#A30AA1"/>
	<stop  offset="0.5838" style="stop-color:#750AC5"/>
	<stop  offset="1" style="stop-color:#1327BD"/>
</linearGradient>
<path class="st26" d="M305.7,713.8l-63.2,16.8l147.9,445.8l257.7-116.2L305.7,713.8z"/>
<linearGradient id="SVGID_28_" gradientUnits="userSpaceOnUse" x1="1241.8431" y1="771.3069" x2="3114.6829" y2="-1101.533" gradientTransform="matrix(1 0 0 1 0 1350)">
	<stop  offset="0" style="stop-color:#A30AA1"/>
	<stop  offset="0.5838" style="stop-color:#750AC5"/>
	<stop  offset="1" style="stop-color:#1327BD"/>
</linearGradient>
<path class="st27" d="M2996,654.3V220.2c0-29.3-5.7-57.4-16.7-84c-3.9-9.2-8.5-17.8-13.3-26.2l-123,389.5L2996,654.3z"/>
<linearGradient id="SVGID_29_" gradientUnits="userSpaceOnUse" x1="599.8878" y1="107.9122" x2="2467.7139" y2="-1759.9138" gradientTransform="matrix(1 0 0 1 0 1350)">
	<stop  offset="0" style="stop-color:#A30AA1"/>
	<stop  offset="0.5838" style="stop-color:#750AC5"/>
	<stop  offset="1" style="stop-color:#1327BD"/>
</linearGradient>
<path class="st28" d="M1681,594.9V349.7l-259.8,68.8l200.7,203L1681,594.9z"/>
<linearGradient id="SVGID_30_" gradientUnits="userSpaceOnUse" x1="770.9455" y1="276.8545" x2="2636.6453" y2="-1588.8452" gradientTransform="matrix(1 0 0 1 0 1350)">
	<stop  offset="0" style="stop-color:#A30AA1"/>
	<stop  offset="0.5838" style="stop-color:#750AC5"/>
	<stop  offset="1" style="stop-color:#1327BD"/>
</linearGradient>
<path class="st29" d="M1621.9,621.5l-231.6,104.3v492.6L1681,998.5V681.2L1621.9,621.5z"/>
<linearGradient id="SVGID_31_" gradientUnits="userSpaceOnUse" x1="543.9047" y1="43.7453" x2="2405.7888" y2="-1818.1388" gradientTransform="matrix(1 0 0 1 0 1350)">
	<stop  offset="0" style="stop-color:#A30AA1"/>
	<stop  offset="0.5838" style="stop-color:#750AC5"/>
	<stop  offset="1" style="stop-color:#1327BD"/>
</linearGradient>
<path class="st30" d="M1421.2,418.5l-282.5,74.7l-126.3,402.9l350.6-158l27.3-82.3v70l231.6-104.3L1421.2,418.5z"/>
<linearGradient id="SVGID_32_" gradientUnits="userSpaceOnUse" x1="745.7529" y1="238.747" x2="2600.7559" y2="-1616.2557" gradientTransform="matrix(1 0 0 1 0 1350)">
	<stop  offset="0" style="stop-color:#A30AA1"/>
	<stop  offset="0.5838" style="stop-color:#750AC5"/>
	<stop  offset="1" style="stop-color:#1327BD"/>
</linearGradient>
<path class="st31" d="M2121.8,232.9l-193.7,51.3h244.4L2121.8,232.9z"/>
<linearGradient id="SVGID_33_" gradientUnits="userSpaceOnUse" x1="968.7927" y1="466.1575" x2="2825.9048" y2="-1390.9547" gradientTransform="matrix(1 0 0 1 0 1350)">
	<stop  offset="0" style="stop-color:#A30AA1"/>
	<stop  offset="0.5838" style="stop-color:#750AC5"/>
	<stop  offset="1" style="stop-color:#1327BD"/>
</linearGradient>
<path class="st32" d="M2905.5,43.1c-6.2-4.5-12.6-8.7-19.3-12.5L2484.3,137l65.6,66.4L2905.5,43.1L2905.5,43.1z"/>
<linearGradient id="SVGID_34_" gradientUnits="userSpaceOnUse" x1="1339.5964" y1="858.6697" x2="3207.3438" y2="-1009.0773" gradientTransform="matrix(1 0 0 1 0 1350)">
	<stop  offset="0" style="stop-color:#A30AA1"/>
	<stop  offset="0.5838" style="stop-color:#750AC5"/>
	<stop  offset="1" style="stop-color:#1327BD"/>
</linearGradient>
<path class="st33" d="M2732.2,850.3l35.5,35.9h12.8c29,0,56.4-5.8,82-17.1c25.8-11.2,48.5-26.7,68.3-46c19.8-19.2,35.6-42.7,47.5-70
	c11.9-27.2,17.8-56.9,17.8-88.9v-9.8L2843,499.6L2732.2,850.3L2732.2,850.3z"/>
<linearGradient id="SVGID_35_" gradientUnits="userSpaceOnUse" x1="853.5057" y1="350.4941" x2="2710.8311" y2="-1506.8312" gradientTransform="matrix(1 0 0 1 0 1350)">
	<stop  offset="0" style="stop-color:#A30AA1"/>
	<stop  offset="0.5838" style="stop-color:#750AC5"/>
	<stop  offset="1" style="stop-color:#1327BD"/>
</linearGradient>
<path class="st34" d="M2370.4,284.2l179.7-81l-65.7-66.3l-362.6,96l50.7,51.3H2370.4z"/>
<linearGradient id="SVGID_36_" gradientUnits="userSpaceOnUse" x1="1237.6813" y1="762.1186" x2="3109.3435" y2="-1109.5437" gradientTransform="matrix(1 0 0 1 0 1350)">
	<stop  offset="0" style="stop-color:#A30AA1"/>
	<stop  offset="0.5838" style="stop-color:#750AC5"/>
	<stop  offset="1" style="stop-color:#1327BD"/>
</linearGradient>
<path class="st35" d="M2730.9,386.2l-27.5,39.4v176.5H2580l-38.6,55.3l190.8,192.9L2843,499.6L2730.9,386.2z"/>
<linearGradient id="SVGID_37_" gradientUnits="userSpaceOnUse" x1="922.4396" y1="431.3106" x2="2788.5205" y2="-1434.7706" gradientTransform="matrix(1 0 0 1 0 1350)">
	<stop  offset="0" style="stop-color:#A30AA1"/>
	<stop  offset="0.5838" style="stop-color:#750AC5"/>
	<stop  offset="1" style="stop-color:#1327BD"/>
</linearGradient>
<path class="st36" d="M1841.1,843.2v34.2l19.4-14.7L1841.1,843.2z"/>
<linearGradient id="SVGID_38_" gradientUnits="userSpaceOnUse" x1="1142.2323" y1="651.6675" x2="3005.1731" y2="-1211.2732" gradientTransform="matrix(1 0 0 1 0 1350)">
	<stop  offset="0" style="stop-color:#A30AA1"/>
	<stop  offset="0.5838" style="stop-color:#750AC5"/>
	<stop  offset="1" style="stop-color:#1327BD"/>
</linearGradient>
<path class="st37" d="M2486.9,602.1l54.5,55.3l38.6-55.3H2486.9z"/>
<linearGradient id="SVGID_39_" gradientUnits="userSpaceOnUse" x1="1079.5631" y1="580.0866" x2="2936.8726" y2="-1277.2228" gradientTransform="matrix(1 0 0 1 0 1350)">
	<stop  offset="0" style="stop-color:#A30AA1"/>
	<stop  offset="0.5838" style="stop-color:#750AC5"/>
	<stop  offset="1" style="stop-color:#1327BD"/>
</linearGradient>
<path class="st38" d="M2204.9,602.1l-344.4,260.6l23.1,23.5h357l74.9,94.4l225.9-323.2l-54.5-55.3H2204.9z"/>
<linearGradient id="SVGID_40_" gradientUnits="userSpaceOnUse" x1="944.5792" y1="449.571" x2="2806.6423" y2="-1412.4924" gradientTransform="matrix(1 0 0 1 0 1350)">
	<stop  offset="0" style="stop-color:#A30AA1"/>
	<stop  offset="0.5838" style="stop-color:#750AC5"/>
	<stop  offset="1" style="stop-color:#1327BD"/>
</linearGradient>
<path class="st39" d="M1841.1,877.4v8.8h42.5l-23.1-23.5L1841.1,877.4z"/>
</svg>
