<svg xmlns="http://www.w3.org/2000/svg" viewBox="0 0 3000 1400"><defs/><path d="M0 .2h3000v1400H0z"/><linearGradient id="a" x1="886.5003" x2="2745.8115" y1="-338.6533" y2="1520.6582" gradientTransform="matrix(1 0 0 -1 0 1400)" gradientUnits="userSpaceOnUse"><stop offset="0" stop-color="#a30aa1"/><stop offset=".5838" stop-color="#750ac5"/><stop offset="1" stop-color="#1327bd"/></linearGradient><path fill="url(#a)" d="M1841.1 843.2l19.4 19.5 344.4-260.6h-363.8z"/><linearGradient id="b" x1="1110.6781" x2="2982.2812" y1="-584.7021" y2="1286.9009" gradientTransform="matrix(1 0 0 -1 0 1400)" gradientUnits="userSpaceOnUse"><stop offset="0" stop-color="#a30aa1"/><stop offset=".5838" stop-color="#750ac5"/><stop offset="1" stop-color="#1327bd"/></linearGradient><path fill="url(#b)" d="M2703.4 425.6l27.5-39.4-27.5-27.8z"/><linearGradient id="c" x1="1584.7422" x2="3454.5095" y1="-1056.0596" y2="813.7077" gradientTransform="matrix(1 0 0 -1 0 1400)" gradientUnits="userSpaceOnUse"><stop offset="0" stop-color="#a30aa1"/><stop offset=".5838" stop-color="#750ac5"/><stop offset="1" stop-color="#1327bd"/></linearGradient><path fill="url(#c)" d="M2648.1 1400.2H3000l-313.4-405.4-102.5 324.7z"/><linearGradient id="d" x1="967.4937" x2="2824.6101" y1="-414.8665" y2="1442.25" gradientTransform="matrix(1 0 0 -1 0 1400)" gradientUnits="userSpaceOnUse"><stop offset="0" stop-color="#a30aa1"/><stop offset=".5838" stop-color="#750ac5"/><stop offset="1" stop-color="#1327bd"/></linearGradient><path fill="url(#d)" d="M2628 282.1l-77.9-78.9-179.7 81h254.9z"/><linearGradient id="e" x1="431.1046" x2="2288.0452" y1="121.5711" y2="1978.5118" gradientTransform="matrix(1 0 0 -1 0 1400)" gradientUnits="userSpaceOnUse"><stop offset="0" stop-color="#a30aa1"/><stop offset=".5838" stop-color="#750ac5"/><stop offset="1" stop-color="#1327bd"/></linearGradient><path fill="url(#e)" d="M648.1 1060.2l1.2 1.2-.5-1.5z"/><linearGradient id="f" x1="255.5549" x2="2136.7966" y1="291.4254" y2="2172.667" gradientTransform="matrix(1 0 0 -1 0 1400)" gradientUnits="userSpaceOnUse"><stop offset="0" stop-color="#a30aa1"/><stop offset=".5838" stop-color="#750ac5"/><stop offset="1" stop-color="#1327bd"/></linearGradient><path fill="url(#f)" d="M522.3 656.5l-216.6 57.3 342.4 346.4.7-.3z"/><linearGradient id="g" x1="394.8027" x2="2261.3613" y1="152.9313" y2="2019.49" gradientTransform="matrix(1 0 0 -1 0 1400)" gradientUnits="userSpaceOnUse"><stop offset="0" stop-color="#a30aa1"/><stop offset=".5838" stop-color="#750ac5"/><stop offset="1" stop-color="#1327bd"/></linearGradient><path fill="url(#g)" d="M1224.5 219.6l-85.8 273.6 282.5-74.7z"/><linearGradient id="h" x1="994.905" x2="2857.6545" y1="-450.0487" y2="1412.7008" gradientTransform="matrix(1 0 0 -1 0 1400)" gradientUnits="userSpaceOnUse"><stop offset="0" stop-color="#a30aa1"/><stop offset=".5838" stop-color="#750ac5"/><stop offset="1" stop-color="#1327bd"/></linearGradient><path fill="url(#h)" d="M1390.3 1400.2H1681V998.5l-290.7 219.9z"/><linearGradient id="i" x1="759.011" x2="2616.8887" y1="-206.2388" y2="1651.6387" gradientTransform="matrix(1 0 0 -1 0 1400)" gradientUnits="userSpaceOnUse"><stop offset="0" stop-color="#a30aa1"/><stop offset=".5838" stop-color="#750ac5"/><stop offset="1" stop-color="#1327bd"/></linearGradient><path fill="url(#i)" d="M2412.7 64.4l-412.9 45 122 123.5 362.6-96z"/><linearGradient id="j" x1="720.1742" x2="2591.7773" y1="-182.6261" y2="1688.9769" gradientTransform="matrix(1 0 0 -1 0 1400)" gradientUnits="userSpaceOnUse"><stop offset="0" stop-color="#a30aa1"/><stop offset=".5838" stop-color="#750ac5"/><stop offset="1" stop-color="#1327bd"/></linearGradient><path fill="url(#j)" d="M1621.9 621.5l59.1 59.7v-86.3z"/><linearGradient id="k" x1="-248.5895" x2="1614.5586" y1="806.8379" y2="2669.9858" gradientTransform="matrix(1 0 0 -1 0 1400)" gradientUnits="userSpaceOnUse"><stop offset="0" stop-color="#a30aa1"/><stop offset=".5838" stop-color="#750ac5"/><stop offset="1" stop-color="#1327bd"/></linearGradient><path fill="url(#k)" d="M316.5.2H0l104.9 316.1 300.5-32.8z"/><linearGradient id="l" x1="1378.5283" x2="3241.0928" y1="-839.6679" y2="1022.8962" gradientTransform="matrix(1 0 0 -1 0 1400)" gradientUnits="userSpaceOnUse"><stop offset="0" stop-color="#a30aa1"/><stop offset=".5838" stop-color="#750ac5"/><stop offset="1" stop-color="#1327bd"/></linearGradient><path fill="url(#l)" d="M2720.9 886.2h46.9l-35.6-35.9z"/><linearGradient id="m" x1="1029.5682" x2="2889.2998" y1="-482.3255" y2="1377.406" gradientTransform="matrix(1 0 0 -1 0 1400)" gradientUnits="userSpaceOnUse"><stop offset="0" stop-color="#a30aa1"/><stop offset=".5838" stop-color="#750ac5"/><stop offset="1" stop-color="#1327bd"/></linearGradient><path fill="url(#m)" d="M2630.1 284.2l-2.1-2.1-2.7 2.1z"/><linearGradient id="n" x1="1076.6545" x2="2940.103" y1="-536.9647" y2="1326.4839" gradientTransform="matrix(1 0 0 -1 0 1400)" gradientUnits="userSpaceOnUse"><stop offset="0" stop-color="#a30aa1"/><stop offset=".5838" stop-color="#750ac5"/><stop offset="1" stop-color="#1327bd"/></linearGradient><path fill="url(#n)" d="M2630.1 284.2h73.3v74.1l27.5 27.8L2945 79.8c-3.9-4.7-7.9-9.3-12.2-13.7-2.8-2.8-5.8-5.4-8.7-8l-296 223.9 2 2.2z"/><linearGradient id="o" x1="671.3541" x2="2526.5493" y1="-113.1493" y2="1742.0459" gradientTransform="matrix(1 0 0 -1 0 1400)" gradientUnits="userSpaceOnUse"><stop offset="0" stop-color="#a30aa1"/><stop offset=".5838" stop-color="#750ac5"/><stop offset="1" stop-color="#1327bd"/></linearGradient><path fill="url(#o)" d="M2412.7 64.4L2349.2.2h-457.6l108.2 109.2z"/><linearGradient id="p" x1="886.3942" x2="2739.0898" y1="-324.6095" y2="1528.0865" gradientTransform="matrix(1 0 0 -1 0 1400)" gradientUnits="userSpaceOnUse"><stop offset="0" stop-color="#a30aa1"/><stop offset=".5838" stop-color="#750ac5"/><stop offset="1" stop-color="#1327bd"/></linearGradient><path fill="url(#p)" d="M2856.6 16C2831.2 5.6 2804 .2 2774.6.2h-425.4l63.5 64.2L2856.6 16z"/><linearGradient id="q" x1="430.3653" x2="2285.5071" y1="128.9406" y2="1984.0823" gradientTransform="matrix(1 0 0 -1 0 1400)" gradientUnits="userSpaceOnUse"><stop offset="0" stop-color="#a30aa1"/><stop offset=".5838" stop-color="#750ac5"/><stop offset="1" stop-color="#1327bd"/></linearGradient><path fill="url(#q)" d="M1891.6.2h-598.2l-60.6 193 767-83.8z"/><linearGradient id="r" x1="927.6899" x2="2781.9575" y1="-369.2186" y2="1485.049" gradientTransform="matrix(1 0 0 -1 0 1400)" gradientUnits="userSpaceOnUse"><stop offset="0" stop-color="#a30aa1"/><stop offset=".5838" stop-color="#750ac5"/><stop offset="1" stop-color="#1327bd"/></linearGradient><path fill="url(#r)" d="M2484.4 136.9l401.8-106.3c-7.6-4.5-15.4-8.6-23.7-12.3-1.9-.9-4-1.4-6-2.2l-443.9 48.5 71.8 72.3z"/><linearGradient id="s" x1="1157.5277" x2="3024.9968" y1="-626.0218" y2="1241.4473" gradientTransform="matrix(1 0 0 -1 0 1400)" gradientUnits="userSpaceOnUse"><stop offset="0" stop-color="#a30aa1"/><stop offset=".5838" stop-color="#750ac5"/><stop offset="1" stop-color="#1327bd"/></linearGradient><path fill="url(#s)" d="M2730.9 386.2l112 113.3 123-389.5c-6.2-10.7-13.1-20.8-21-30.1l-214 306.3z"/><linearGradient id="t" x1="522.253" x2="2380.1477" y1="31.8759" y2="1889.7706" gradientTransform="matrix(1 0 0 -1 0 1400)" gradientUnits="userSpaceOnUse"><stop offset="0" stop-color="#a30aa1"/><stop offset=".5838" stop-color="#750ac5"/><stop offset="1" stop-color="#1327bd"/></linearGradient><path fill="url(#t)" d="M1421.2 418.5l259.8-68.8v-65.5h247.1l193.7-51.3-122-123.5-767 83.8-8.3 26.4z"/><linearGradient id="u" x1="1007.605" x2="2867.2239" y1="-460.1633" y2="1399.4553" gradientTransform="matrix(1 0 0 -1 0 1400)" gradientUnits="userSpaceOnUse"><stop offset="0" stop-color="#a30aa1"/><stop offset=".5838" stop-color="#750ac5"/><stop offset="1" stop-color="#1327bd"/></linearGradient><path fill="url(#u)" d="M2628 282.1l296-223.9c-5.9-5.4-12.1-10.4-18.5-15.1L2550 203.3l78 78.8z"/><linearGradient id="v" x1="643.3472" x2="2507.2312" y1="-96.08" y2="1767.8038" gradientTransform="matrix(1 0 0 -1 0 1400)" gradientUnits="userSpaceOnUse"><stop offset="0" stop-color="#a30aa1"/><stop offset=".5838" stop-color="#750ac5"/><stop offset="1" stop-color="#1327bd"/></linearGradient><path fill="url(#v)" d="M1216.2 1180.2l146.7-442-350.6 158-69 220.1H703.5l278.6 281.8c55.7-6 101.3-25.1 136.3-57.8 42.7-40.1 75.4-93.4 97.8-160.1z"/><linearGradient id="w" x1="1338.4213" x2="3211.4812" y1="-812.7598" y2="1060.3011" gradientTransform="matrix(1 0 0 -1 0 1400)" gradientUnits="userSpaceOnUse"><stop offset="0" stop-color="#a30aa1"/><stop offset=".5838" stop-color="#750ac5"/><stop offset="1" stop-color="#1327bd"/></linearGradient><path fill="url(#w)" d="M2720.9 886.2l11.3-35.9-190.8-192.9-225.9 323.2 268.6 338.9 102.5-324.7-84-108.6z"/><linearGradient id="x" x1="562.3276" x2="2425.8777" y1="-11.133" y2="1852.4172" gradientTransform="matrix(1 0 0 -1 0 1400)" gradientUnits="userSpaceOnUse"><stop offset="0" stop-color="#a30aa1"/><stop offset=".5838" stop-color="#750ac5"/><stop offset="1" stop-color="#1327bd"/></linearGradient><path fill="url(#x)" d="M666.5 1116.2l-17.2-54.8-1.1-1.1-257.8 116.1 1.3 3.8c22.4 65.3 55.4 118.4 98.9 158.9 43.5 40.8 102.2 61.1 176 61.1h276.8c13.5 0 26.3-.9 38.7-2.2l-278.6-281.8h-37z"/><linearGradient id="y" x1="-22.9742" x2="1844.6516" y1="577.0221" y2="2444.6479" gradientTransform="matrix(1 0 0 -1 0 1400)" gradientUnits="userSpaceOnUse"><stop offset="0" stop-color="#a30aa1"/><stop offset=".5838" stop-color="#750ac5"/><stop offset="1" stop-color="#1327bd"/></linearGradient><path fill="url(#y)" d="M522.3 656.5l-116.9-373-300.5 32.8 97.3 292.8 103.5 104.7z"/><linearGradient id="z" x1="33.5948" x2="1915.7766" y1="518.2125" y2="2400.3943" gradientTransform="matrix(1 0 0 -1 0 1400)" gradientUnits="userSpaceOnUse"><stop offset="0" stop-color="#a30aa1"/><stop offset=".5838" stop-color="#750ac5"/><stop offset="1" stop-color="#1327bd"/></linearGradient><path fill="url(#z)" d="M202.2 609.1l40.3 121.5 63.2-16.8z"/><linearGradient id="A" x1="246.3602" x2="2122.7251" y1="305.6389" y2="2182.0039" gradientTransform="matrix(1 0 0 -1 0 1400)" gradientUnits="userSpaceOnUse"><stop offset="0" stop-color="#a30aa1"/><stop offset=".5838" stop-color="#750ac5"/><stop offset="1" stop-color="#1327bd"/></linearGradient><path fill="url(#A)" d="M305.7 713.8l-63.2 16.8 147.9 445.8 257.7-116.2z"/><linearGradient id="B" x1="1241.8757" x2="3114.7156" y1="-721.3395" y2="1151.5004" gradientTransform="matrix(1 0 0 -1 0 1400)" gradientUnits="userSpaceOnUse"><stop offset="0" stop-color="#a30aa1"/><stop offset=".5838" stop-color="#750ac5"/><stop offset="1" stop-color="#1327bd"/></linearGradient><path fill="url(#B)" d="M2996 654.3V220.2c0-29.3-5.7-57.4-16.7-84-3.9-9.2-8.5-17.8-13.3-26.2l-123 389.5 153 154.8z"/><linearGradient id="C" x1="599.8579" x2="2467.6838" y1="-57.8824" y2="1809.9435" gradientTransform="matrix(1 0 0 -1 0 1400)" gradientUnits="userSpaceOnUse"><stop offset="0" stop-color="#a30aa1"/><stop offset=".5838" stop-color="#750ac5"/><stop offset="1" stop-color="#1327bd"/></linearGradient><path fill="url(#C)" d="M1681 594.9V349.7l-259.8 68.8 200.7 203z"/><linearGradient id="D" x1="770.9583" x2="2636.658" y1="-226.8673" y2="1638.8323" gradientTransform="matrix(1 0 0 -1 0 1400)" gradientUnits="userSpaceOnUse"><stop offset="0" stop-color="#a30aa1"/><stop offset=".5838" stop-color="#750ac5"/><stop offset="1" stop-color="#1327bd"/></linearGradient><path fill="url(#D)" d="M1621.9 621.5l-231.6 104.3v492.6L1681 998.5V681.2z"/><linearGradient id="E" x1="543.8984" x2="2405.7825" y1="6.261" y2="1868.1451" gradientTransform="matrix(1 0 0 -1 0 1400)" gradientUnits="userSpaceOnUse"><stop offset="0" stop-color="#a30aa1"/><stop offset=".5838" stop-color="#750ac5"/><stop offset="1" stop-color="#1327bd"/></linearGradient><path fill="url(#E)" d="M1421.2 418.5l-282.5 74.7-126.3 402.9 350.6-158 27.3-82.3v70l231.6-104.3z"/><linearGradient id="F" x1="745.7766" x2="2600.7795" y1="-188.7707" y2="1666.2319" gradientTransform="matrix(1 0 0 -1 0 1400)" gradientUnits="userSpaceOnUse"><stop offset="0" stop-color="#a30aa1"/><stop offset=".5838" stop-color="#750ac5"/><stop offset="1" stop-color="#1327bd"/></linearGradient><path fill="url(#F)" d="M2121.8 232.9l-193.7 51.3h244.4z"/><linearGradient id="G" x1="968.7922" x2="2825.9043" y1="-416.157" y2="1440.9552" gradientTransform="matrix(1 0 0 -1 0 1400)" gradientUnits="userSpaceOnUse"><stop offset="0" stop-color="#a30aa1"/><stop offset=".5838" stop-color="#750ac5"/><stop offset="1" stop-color="#1327bd"/></linearGradient><path fill="url(#G)" d="M2905.5 43.1c-6.2-4.5-12.6-8.7-19.3-12.5L2484.3 137l65.6 66.4 355.6-160.3z"/><linearGradient id="H" x1="1339.5807" x2="3207.3279" y1="-808.654" y2="1059.0929" gradientTransform="matrix(1 0 0 -1 0 1400)" gradientUnits="userSpaceOnUse"><stop offset="0" stop-color="#a30aa1"/><stop offset=".5838" stop-color="#750ac5"/><stop offset="1" stop-color="#1327bd"/></linearGradient><path fill="url(#H)" d="M2732.2 850.3l35.5 35.9h12.8c29 0 56.4-5.8 82-17.1 25.8-11.2 48.5-26.7 68.3-46 19.8-19.2 35.6-42.7 47.5-70 11.9-27.2 17.8-56.9 17.8-88.9v-9.8L2843 499.6l-110.8 350.7z"/><linearGradient id="I" x1="853.5027" x2="2710.8279" y1="-300.491" y2="1556.8342" gradientTransform="matrix(1 0 0 -1 0 1400)" gradientUnits="userSpaceOnUse"><stop offset="0" stop-color="#a30aa1"/><stop offset=".5838" stop-color="#750ac5"/><stop offset="1" stop-color="#1327bd"/></linearGradient><path fill="url(#I)" d="M2370.4 284.2l179.7-81-65.7-66.3-362.6 96 50.7 51.3z"/><linearGradient id="J" x1="1237.6584" x2="3109.3208" y1="-712.0957" y2="1159.5665" gradientTransform="matrix(1 0 0 -1 0 1400)" gradientUnits="userSpaceOnUse"><stop offset="0" stop-color="#a30aa1"/><stop offset=".5838" stop-color="#750ac5"/><stop offset="1" stop-color="#1327bd"/></linearGradient><path fill="url(#J)" d="M2730.9 386.2l-27.5 39.4v176.5H2580l-38.6 55.3 190.8 192.9L2843 499.6z"/><linearGradient id="K" x1="922.4512" x2="2788.532" y1="-381.3221" y2="1484.7592" gradientTransform="matrix(1 0 0 -1 0 1400)" gradientUnits="userSpaceOnUse"><stop offset="0" stop-color="#a30aa1"/><stop offset=".5838" stop-color="#750ac5"/><stop offset="1" stop-color="#1327bd"/></linearGradient><path fill="url(#K)" d="M1841.1 843.2v34.2l19.4-14.7z"/><linearGradient id="L" x1="1142.2568" x2="3005.1975" y1="-601.692" y2="1261.2485" gradientTransform="matrix(1 0 0 -1 0 1400)" gradientUnits="userSpaceOnUse"><stop offset="0" stop-color="#a30aa1"/><stop offset=".5838" stop-color="#750ac5"/><stop offset="1" stop-color="#1327bd"/></linearGradient><path fill="url(#L)" d="M2486.9 602.1l54.5 55.3 38.6-55.3z"/><linearGradient id="M" x1="1079.5848" x2="2936.8943" y1="-530.1083" y2="1327.201" gradientTransform="matrix(1 0 0 -1 0 1400)" gradientUnits="userSpaceOnUse"><stop offset="0" stop-color="#a30aa1"/><stop offset=".5838" stop-color="#750ac5"/><stop offset="1" stop-color="#1327bd"/></linearGradient><path fill="url(#M)" d="M2204.9 602.1l-344.4 260.6 23.1 23.5h357l74.9 94.4 225.9-323.2-54.5-55.3z"/><linearGradient id="N" x1="944.5804" x2="2806.6436" y1="-399.5722" y2="1462.4913" gradientTransform="matrix(1 0 0 -1 0 1400)" gradientUnits="userSpaceOnUse"><stop offset="0" stop-color="#a30aa1"/><stop offset=".5838" stop-color="#750ac5"/><stop offset="1" stop-color="#1327bd"/></linearGradient><path fill="url(#N)" d="M1841.1 877.4v8.8h42.5l-23.1-23.5z"/></svg>